<?xml version="1.0" encoding="iso-8859-1"?>
<!-- Generator: Adobe Illustrator 19.0.0, SVG Export Plug-In . SVG Version: 6.00 Build 0)  -->
<svg version="1.1" id="Layer_1" xmlns="http://www.w3.org/2000/svg" xmlns:xlink="http://www.w3.org/1999/xlink" x="0px" y="0px"
	 viewBox="0 0 485 485" style="enable-background:new 0 0 485 485;" xml:space="preserve">
<g>
	<g>
		<g>
			<path d="M340.4,360.552c-8.931-4.704-30.922-17.164-40.4-26.105v-24.298c30.418-17.386,51.203-48.561,57.822-86.708
				C375.028,218.505,390,202.356,390,187.5c0-15.043-11.308-25.026-30-27.094V52.06l-0.052-0.438C359.7,49.515,352.603,0,242.5,0
				S125.3,49.515,125.052,51.623L125,52.06v108.346c-18.692,2.068-30,12.051-30,27.094c0,14.856,14.972,31.005,32.178,35.94
				c6.619,38.146,27.405,69.322,57.822,86.708v24.299c-9.483,8.947-31.496,21.416-40.416,26.114
				c-97.483,31.626-99.543,89.368-99.583,91.816L45,485h395v-32.541C439.986,449.996,438.545,391.89,340.4,360.552z M360,175.482
				c13.367,1.874,15,8.786,15,12.018c0,6.131-6.637,14.48-15.286,19.081C359.899,203.496,360,175.482,360,175.482z M110,187.5
				c0-3.232,1.633-10.144,15-12.018c0,0,0.102,28.014,0.286,31.099C116.637,201.98,110,193.631,110,187.5z M140.001,53.169
				c0.404-1.796,2.797-9.92,14.213-18.287C166.59,25.812,191.953,15,242.5,15s75.91,10.812,88.286,19.882
				c11.416,8.367,13.809,16.491,14.214,18.287v71.286c-6.431-1.002-11.355-3.389-14.679-7.144
				c-6.676-7.54-5.396-18.744-5.388-18.813L326.074,90H158.926l1.141,8.498c0.015,0.11,1.289,11.181-5.314,18.73
				c-3.326,3.802-8.274,6.218-14.752,7.227V53.169z M140,139.595c11.141-1.259,19.88-5.445,26.042-12.491
				c6.313-7.216,8.357-15.847,8.927-22.104h135.063c0.569,6.257,2.614,14.887,8.927,22.104c6.162,7.046,14.901,11.232,26.042,12.491
				V165h-15v-15H255v18.638c-4.012-2.036-8.455-3.638-12.5-3.638s-8.488,1.603-12.5,3.638V150h-75v15h-15V139.595z M315,165v17.5
				c0,6.893-5.607,12.5-12.5,12.5h-20c-6.893,0-12.5-5.607-12.5-12.5V165H315z M215,165v17.5c0,6.893-5.607,12.5-12.5,12.5h-20
				c-6.893,0-12.5-5.607-12.5-12.5V165H215z M141.3,216.777l-0.058-0.507c-0.836-6.688-1.242-12.827-1.242-18.77V180h15v2.5
				c0,15.164,12.337,27.5,27.5,27.5h20c13.834,0,25.311-10.271,27.217-23.586c4.586-3.319,10.246-6.414,12.783-6.414
				c2.518,0,8.185,3.1,12.784,6.42C257.193,199.733,268.668,210,282.5,210h20c15.163,0,27.5-12.336,27.5-27.5V180h15v17.5
				c0,5.943-0.406,12.083-1.242,18.77l-0.037,0.359c-5.226,37.115-25.136,67.138-54.666,82.409l-1.03,0.533l-0.066,0.066
				C274.213,306.514,258.923,310,242.5,310c-16.408,0-31.687-3.48-45.458-10.363l-1.097-0.599
				C166.455,283.788,146.559,253.823,141.3,216.777z M198.093,342.497l1.907-2.135v-23.049c13.218,5.099,27.464,7.687,42.5,7.687
				c15.043,0,29.295-2.59,42.5-7.685v23.047l1.907,2.135c8.658,9.691,29.001,21.693,40.031,27.818
				c-2.833,3.856-7.421,9.115-14.265,14.333C295.207,397.962,270.941,405,242.5,405c-28.441,0-52.707-7.038-70.173-20.353
				c-6.847-5.22-11.436-10.482-14.266-14.332C169.09,364.191,189.434,352.188,198.093,342.497z M425,470L425,470H60v-17.362
				c0.048-0.88,0.904-12.937,11.582-28.015c17.421-24.602,47.985-39.528,72.51-48.069C152.818,389.75,179.673,420,242.5,420
				c62.868,0,89.717-30.289,98.424-43.471c24.673,8.46,55.39,23.31,72.708,47.956c10.718,15.254,11.344,27.458,11.368,28.096V470z"
				/>
			<path d="M242.5,235h20v-15H250v-17.5h-15v25C235,231.642,238.357,235,242.5,235z"/>
		</g>
	</g>
</g>
<g>
</g>
<g>
</g>
<g>
</g>
<g>
</g>
<g>
</g>
<g>
</g>
<g>
</g>
<g>
</g>
<g>
</g>
<g>
</g>
<g>
</g>
<g>
</g>
<g>
</g>
<g>
</g>
<g>
</g>
</svg>
